{
	"asset":{
		"generator":"Khronos glTF Blender I/O v4.1.63",
		"version":"2.0"
	},
	"scene":0,
	"scenes":[
		{
			"name":"Scene",
			"nodes":[
				0
			]
		}
	],
	"nodes":[
		{
			"mesh":0,
			"name":"tool",
			"rotation":[
				0.7071068286895752,
				0,
				0,
				0.7071068286895752
			]
		}
	],
	"meshes":[
		{
			"name":"tool",
			"primitives":[
				{
					"attributes":{
						"POSITION":0,
						"NORMAL":1
					},
					"indices":2
				}
			]
		}
	],
	"accessors":[
		{
			"bufferView":0,
			"componentType":5126,
			"count":2202,
			"max":[
				0.14921875298023224,
				0.02421874925494194,
				0.07578124850988388
			],
			"min":[
				-0.20000000298023224,
				-0.02578124962747097,
				-0.07421875
			],
			"type":"VEC3"
		},
		{
			"bufferView":1,
			"componentType":5126,
			"count":2202,
			"type":"VEC3"
		},
		{
			"bufferView":2,
			"componentType":5123,
			"count":9000,
			"type":"SCALAR"
		}
	],
	"bufferViews":[
		{
			"buffer":0,
			"byteLength":26424,
			"byteOffset":0,
			"target":34962
		},
		{
			"buffer":0,
			"byteLength":26424,
			"byteOffset":26424,
			"target":34962
		},
		{
			"buffer":0,
			"byteLength":18000,
			"byteOffset":52848,
			"target":34963
		}
	],
	"buffers":[
		{
			"byteLength":70848,
			"uri":"test.bin"
		}
	]
}
