{
	"asset":{
		"generator":"Khronos glTF Blender I/O v4.1.63",
		"version":"2.0"
	},
	"scene":0,
	"scenes":[
		{
			"name":"Scene",
			"nodes":[
				0
			]
		}
	],
	"nodes":[
		{
			"mesh":0,
			"name":"Cube",
			"rotation":[
				0.7071068286895752,
				0,
				0,
				0.7071068286895752
			]
		}
	],
	"materials":[
		{
			"doubleSided":true,
			"name":"Material.004",
			"pbrMetallicRoughness":{
				"baseColorFactor":[
					0.8006705641746521,
					0.08073532581329346,
					0.7718690037727356,
					1
				],
				"roughnessFactor":0.5
			}
		}
	],
	"meshes":[
		{
			"name":"Cube.001",
			"primitives":[
				{
					"attributes":{
						"POSITION":0,
						"NORMAL":1,
						"TEXCOORD_0":2
					},
					"indices":3,
					"material":0
				}
			]
		}
	],
	"accessors":[
		{
			"bufferView":0,
			"componentType":5126,
			"count":2028,
			"max":[
				1.3657130002975464,
				1.7582299709320068,
				-0.0005469999741762877
			],
			"min":[
				-1.3657100200653076,
				-1.4468640089035034,
				-2.8440029621124268
			],
			"type":"VEC3"
		},
		{
			"bufferView":1,
			"componentType":5126,
			"count":2028,
			"type":"VEC3"
		},
		{
			"bufferView":2,
			"componentType":5126,
			"count":2028,
			"type":"VEC2"
		},
		{
			"bufferView":3,
			"componentType":5123,
			"count":10134,
			"type":"SCALAR"
		}
	],
	"bufferViews":[
		{
			"buffer":0,
			"byteLength":24336,
			"byteOffset":0,
			"target":34962
		},
		{
			"buffer":0,
			"byteLength":24336,
			"byteOffset":24336,
			"target":34962
		},
		{
			"buffer":0,
			"byteLength":16224,
			"byteOffset":48672,
			"target":34962
		},
		{
			"buffer":0,
			"byteLength":20268,
			"byteOffset":64896,
			"target":34963
		}
	],
	"buffers":[
		{
			"byteLength":85164,
			"uri":"test1.bin"
		}
	]
}
